<?xml version="1.0" standalone="no"?>
<svg version="1.0" xmlns="http://www.w3.org/2000/svg"
 width="840.000000pt" height="969.000000pt" viewBox="0 0 840.000000 969.000000"
 preserveAspectRatio="xMidYMid meet">
<metadata>
Created by potrace 1.16, written by Peter Selinger 2001-2019
</metadata>
<g transform="translate(0.000000,969.000000) scale(0.100000,-0.100000)"
fill="#000000" stroke="none">
<path d="M4063 9271 c-101 -37 -166 -97 -210 -196 -16 -35 -18 -78 -21 -347
-2 -170 -5 -308 -7 -308 -18 0 -268 -57 -340 -77 -313 -89 -699 -296 -960
-516 -432 -364 -743 -888 -866 -1462 -27 -128 -37 -371 -49 -1260 -11 -798
-19 -993 -46 -1123 -58 -285 -161 -559 -300 -799 -225 -388 -565 -728 -957
-957 -54 -32 -97 -61 -95 -65 4 -9 164 -304 200 -368 l29 -53 3759 0 3759 0
29 53 c35 62 196 359 200 368 2 4 -51 39 -117 79 -548 333 -959 840 -1149
1420 -113 343 -117 387 -132 1410 -16 1119 -23 1216 -102 1494 -134 477 -412
914 -781 1232 -369 318 -769 511 -1249 605 -62 12 -116 25 -120 28 -4 3 -11
139 -17 301 -6 162 -15 311 -21 331 -26 92 -116 174 -228 209 -79 25 -142 25
-209 1z m-447 -1617 c112 -73 133 -215 44 -304 -20 -20 -82 -61 -136 -90 -318
-170 -542 -386 -694 -671 -78 -146 -122 -203 -173 -228 -52 -25 -88 -26 -150
-5 -62 21 -112 77 -126 142 -13 62 3 130 55 234 151 300 403 583 680 764 263
172 408 218 500 158z"/>
<path d="M3225 1358 c30 -227 110 -419 235 -561 218 -248 483 -362 800 -344
245 14 445 105 623 283 120 120 192 238 241 394 27 84 58 258 49 273 -2 4
-443 7 -980 7 l-975 0 7 -52z"/>
</g>
</svg>
